# xmcd
#
# Track frame offsets:
#	150
#	47092
#	112432
#	178744
#	206817
#	214532
#	234498
#	272088
#	315088
#
# Disc length: 4552 seconds
#
# Revision: 0
# Processed by: cddbd v1.5.2PL0 Copyright (c) Steve Scherf et al.
# Submitted via: audiograbber 1.83.01
#
DISCID=8211c609
DTITLE=Grateful Dead - 94-03-04 Desert Sky Pavilion, Phoenix AZ
DYEAR=1900
DGENRE=
TTITLE0=Crazy Fingers
TTITLE1=Estimated Prophet
TTITLE2=Drums
TTITLE3=Space
TTITLE4=Space
TTITLE5=I Need A Miracle
TTITLE6=Black Peter
TTITLE7=Throwing Stones
TTITLE8=US Blues
EXTD=
EXTT0=
EXTT1=
EXTT2=
EXTT3=
EXTT4=
EXTT5=
EXTT6=
EXTT7=
EXTT8=
PLAYORDER=
